<svg version="1.1" xmlns="http://www.w3.org/2000/svg" style="display: block;" viewBox="0 0 4001 4001" width="4001" height="4001" preserveAspectRatio="none">
<path transform="translate(0,0)" fill="rgb(255,255,255)" d="M 0 0 L 500.77 0 L 1207.65 0 L 1252.85 0 L 1459.69 0 L 1498.33 0 L 3500.23 0 L 4001 0 L 4001 490.635 L 4001 2561.28 L 4001 2627.55 L 4001 2707.73 L 4001 2772.39 L 4001 2846.45 L 4001 2912.61 L 4001 3000.39 L 4001 3065.18 L 4001 3510.35 L 4001 4001 L 3502.7 4001 L 2787.85 4001 L 2748.99 4001 L 2541.72 4001 L 2494.52 4001 L 498.307 4001 L 0 4001 L 0 3510.58 L 0 2132.06 L 0 2068.48 L 0 1725.15 L 0 1662.19 L 0 1148.76 L 0 1085.89 L 0 621.307 L 0 498.046 L 0 0 z"/>
<path transform="translate(0,0)" fill="rgb(255,255,255)" d="M 1459.69 0 L 1498.33 0 L 3500.23 0 L 4001 0 L 4001 490.635 L 4001 2561.28 L 4001 2627.55 L 4001 2707.73 L 4001 2772.39 L 4001 2846.45 L 4001 2912.61 L 4001 3000.39 L 4001 3065.18 L 4001 3510.35 L 4001 4001 L 3502.7 4001 L 2787.85 4001 L 2748.99 4001 L 2749.53 3999.06 L 2749.52 1813.44 C 2728.08 1786.73 2705.05 1761.33 2680.58 1737.38 C 2598.23 1657.26 2494.66 1597.54 2376.87 1599.54 C 2254.39 1601.62 2143.76 1667.64 2060.69 1753.86 C 2041.92 1730 2022.36 1707.09 2000.32 1686.12 C 1936.59 1625.49 1857.69 1584.62 1768.06 1587.38 C 1646.03 1591.14 1540.31 1667.97 1459.69 1753.64 L 1459.69 0 z"/>
<path transform="translate(0,0)" fill="rgb(69,44,117)" d="M 2787.12 2169.26 C 3173.16 2349.63 3580.11 2481.35 3998.63 2561.38 L 4001 2561.28 L 4001 2627.55 L 3999.03 2627.52 C 3873.63 2605.97 3748.81 2575.57 3625.96 2542.67 C 3338.06 2466.94 3057.36 2366.07 2787.12 2241.22 L 2787.12 2169.26 z"/>
<path transform="translate(0,0)" fill="rgb(69,44,117)" d="M 2787.12 2420.85 C 3095.84 2541.76 3425.74 2621.41 3752.61 2674.03 C 3834.4 2687.2 3916.36 2697.41 3998.5 2707.95 L 4001 2707.73 L 4001 2772.39 L 3997.43 2773.1 C 3584.08 2728.23 3177.68 2633.46 2787.12 2490.87 L 2787.12 2420.85 z"/>
<path transform="translate(0,0)" fill="rgb(69,44,117)" d="M 2787.12 2664.98 C 2887.67 2696.33 2991.54 2720.7 3094.6 2742.31 C 3392.33 2803.48 3694.85 2838.39 3998.69 2846.65 L 4001 2846.45 L 4001 2912.61 L 3999.02 2912.15 C 3586.11 2896.35 3185.6 2844.73 2787.12 2733.24 L 2787.12 2664.98 z"/>
<path transform="translate(0,0)" fill="rgb(69,44,117)" d="M 2787.12 2891.94 C 3073.22 2962.25 3394.32 2993.12 3688.47 3000.46 C 3749.69 3002.11 3810.93 3002.73 3872.17 3002.33 C 3913.3 3001.96 3954.52 3000.02 3995.63 3000.76 L 4001 3000.39 L 4001 3065.18 L 3999.04 3065.02 C 3600.89 3077.55 3175.64 3049.97 2787.12 2958.8 L 2787.12 2891.94 z"/>
<path transform="translate(0,0)" fill="rgb(121,122,122)" d="M 3998.63 2561.38 C 4001.07 2531.81 3999.12 2500.64 3999.09 2470.88 L 3999.01 2293.31 L 3999.02 1725.16 L 3999.1 912.862 L 3999.13 645.36 C 3999.13 594.394 4000.42 543.105 3998.27 492.204 L 4001 490.635 L 4001 2561.28 L 3998.63 2561.38 z"/>
<path transform="translate(0,0)" fill="rgb(199,200,201)" d="M 1498.33 0 L 3500.23 0 L 3499.26 1.13989 C 3490.66 4.73964 2924.3 1.9532 2867.59 1.95463 L 1960.99 1.97337 L 1660.7 1.97548 C 1609.58 1.97613 1558.22 3.10986 1507.14 1.85922 C 1503.86 1.77905 1501.39 1.06336 1498.33 0 z"/>
<path transform="translate(0,0)" fill="rgb(121,122,122)" d="M 2787.85 4001 C 2802.4 3995.68 2994.02 3998.97 3028.15 3998.97 L 3502.12 3998.52 L 3502.7 4001 L 2787.85 4001 z"/>
<path transform="translate(0,0)" fill="rgb(121,122,122)" d="M 3999.04 3065.02 L 4001 3065.18 L 4001 3510.35 L 3998.12 3509.67 C 4002.65 3461.26 3999.1 3407.82 3999.1 3358.97 L 3999.04 3065.02 z"/>
<path transform="translate(0,0)" fill="rgb(121,122,122)" d="M 3999.02 2912.15 L 4001 2912.61 L 4001 3000.39 L 3995.63 3000.76 C 4002.83 2991.33 3999.11 2928.16 3999.02 2912.15 z"/>
<path transform="translate(0,0)" fill="rgb(121,122,122)" d="M 3999.03 2627.52 L 4001 2627.55 L 4001 2707.73 L 3998.5 2707.95 C 4000.2 2681.36 3999.1 2654.18 3999.03 2627.52 z"/>
<path transform="translate(0,0)" fill="rgb(121,122,122)" d="M 3997.43 2773.1 L 4001 2772.39 L 4001 2846.45 L 3998.69 2846.65 C 3999.03 2831.71 4002.4 2784.15 3997.43 2773.1 z"/>
<path transform="translate(0,0)" fill="rgb(69,44,117)" d="M 1497.17 1034.67 C 1519.8 1048.3 1541.44 1073.46 1560.45 1091.77 C 1633.32 1162.06 1699.66 1238.8 1758.66 1321.07 C 1795.02 1371.58 1827.66 1424.43 1865.33 1474.07 C 1909.6 1532.4 1958.16 1586.41 2008.72 1639.29 C 1996.81 1634.76 1983.12 1619.61 1972.24 1611.91 C 1933.9 1584.38 1890.61 1564.51 1844.74 1553.38 C 1792.59 1490.23 1750.49 1420.81 1702.5 1354.75 C 1641 1270.08 1572.26 1193.84 1497.03 1121.23 L 1497.17 1034.67 z"/>
<path transform="translate(0,0)" fill="rgb(69,44,117)" d="M 1497.09 1468.09 C 1527.51 1483.8 1597.63 1551.43 1624.72 1576.73 L 1603.64 1586.46 C 1589.89 1593.24 1576.62 1601.02 1563.27 1608.58 C 1541.74 1588.63 1519.65 1569.3 1497.03 1550.59 L 1497.09 1468.09 z"/>
<path transform="translate(0,0)" fill="rgb(69,44,117)" d="M 1252.85 0 L 1459.69 0 L 1459.69 1753.64 C 1540.31 1667.97 1646.03 1591.14 1768.06 1587.38 C 1857.69 1584.62 1936.59 1625.49 2000.32 1686.12 C 2022.36 1707.09 2041.92 1730 2060.69 1753.86 C 2143.76 1667.64 2254.39 1601.62 2376.87 1599.54 C 2494.66 1597.54 2598.23 1657.26 2680.58 1737.38 C 2705.05 1761.33 2728.08 1786.73 2749.52 1813.44 L 2749.53 3999.06 L 2748.99 4001 L 2541.72 4001 L 2541.76 2523.31 L 2541.76 2081.86 L 2541.57 1947.87 C 2541.53 1923.34 2539.99 1897.8 2542.72 1873.44 C 2523.15 1846.12 2499.73 1821.77 2473.2 1801.15 C 2430.12 1768.12 2377.91 1747.7 2323.06 1755.38 C 2242.32 1766.69 2182.48 1830.82 2135.85 1892.54 L 2135.13 2662.47 L 1926.54 2662.47 L 1926.54 1879.99 C 1911.67 1865.05 1895.06 1851.45 1877.94 1839.17 C 1815.33 1794.25 1737.95 1764.11 1660.05 1777.41 C 1571.71 1792.48 1509.54 1856.56 1459.69 1926.47 L 1459.69 2662.46 L 1252.85 2662.47 L 1252.85 0 z"/>
<path transform="translate(0,0)" fill="rgb(131,115,163)" d="M 2542.72 1873.44 C 2545.84 1896.16 2544.01 1920.79 2543.91 1943.77 L 2543.62 2067.56 L 2543.73 2508.78 L 2543.72 3998.96 L 2749.53 3999.06 L 2748.99 4001 L 2541.72 4001 L 2541.76 2523.31 L 2541.76 2081.86 L 2541.57 1947.87 C 2541.53 1923.34 2539.99 1897.8 2542.72 1873.44 z"/>
<path transform="translate(0,0)" fill="rgb(69,44,117)" d="M 0 498.046 C 4.42438 516.085 1.78035 538.195 1.56407 556.78 C 394.855 532.14 863.045 630 1205.54 827.857 L 1205.54 903.098 C 845.654 693.996 417.224 600.836 2.53146 621.683 L 0 621.307 L 0 498.046 z"/>
<path transform="translate(0,0)" fill="rgb(69,44,117)" d="M 7.37494 1083.39 C 84.1233 1073.67 162.856 1071.75 240.165 1071.69 C 572.105 1071.46 906.904 1136.25 1205.54 1284 L 1205.54 1357.21 C 906.861 1205.26 576.74 1136.56 242.445 1136.85 C 162.677 1136.92 81.5681 1139.16 2.34174 1149.06 L 0 1148.76 L 0 1085.89 L 7.37494 1083.39 z"/>
<path transform="translate(0,0)" fill="rgb(69,44,117)" d="M 2.10841 1659.84 C 65.634 1643.39 134.122 1635.97 199.233 1628.43 C 534.182 1589.6 889.038 1616.7 1205.54 1737.61 L 1205.54 1807.32 C 1121.17 1775.5 1036.14 1748.55 948.163 1728.5 C 646.8 1659.83 304.478 1660.14 2.48052 1725.77 L 0 1725.15 L 0 1662.19 L 2.10841 1659.84 z"/>
<path transform="translate(0,0)" fill="rgb(69,44,117)" d="M 2.42362 2067.04 C 320.862 1986.41 663.398 1967.96 986.689 2030.48 C 1060.99 2044.85 1133.25 2064.43 1205.54 2086.61 L 1205.54 2155.4 C 805.638 2025.26 408.205 2036.33 2.57022 2133.78 L 0 2132.06 L 0 2068.48 L 2.42362 2067.04 z"/>
<path transform="translate(0,0)" fill="rgb(121,122,122)" d="M 498.307 4001 L 499.866 3998.08 C 508.995 3997.35 518.662 3999.5 528.013 3999.44 C 563.652 3999.04 599.293 3998.9 634.934 3999.03 L 957.891 3999.01 L 1965.93 3999.01 C 2012.67 3999.01 2480.97 3995.2 2494.52 4001 L 498.307 4001 z"/>
<path transform="translate(0,0)" fill="rgb(121,122,122)" d="M 0 2132.06 L 2.57022 2133.78 C -1.61022 2192.49 1.9859 2253.69 1.98632 2312.7 L 1.97594 2670.74 L 1.95436 3206.06 C 1.95031 3307.08 -0.0409778 3408.47 2.97842 3509.42 L 0 3510.58 L 0 2132.06 z"/>
<path transform="translate(0,0)" fill="rgb(199,200,201)" d="M 500.77 0 L 1207.65 0 C 1205.14 0.811574 1204.44 1.1346 1201.49 1.52771 C 1182.25 4.09017 1160.59 2.2 1141.05 2.14301 L 1023.03 1.90097 L 609.664 1.91252 C 593.321 1.92077 513.494 4.74432 503.992 2.55639 C 502.656 2.24875 501.844 0.852132 500.77 0 z"/>
<path transform="translate(0,0)" fill="rgb(121,122,122)" d="M 0 1148.76 L 2.34174 1149.06 C -0.209018 1235.12 2.03702 1321.79 2.0219 1407.92 C 2.00718 1491.7 -0.275408 1576.13 2.10841 1659.84 L 0 1662.19 L 0 1148.76 z"/>
<path transform="translate(0,0)" fill="rgb(121,122,122)" d="M 0 621.307 L 2.53146 621.683 C 0.331348 657.23 0.131745 1076.21 3.54703 1082.17 L 7.37494 1083.39 L 0 1085.89 L 0 621.307 z"/>
<path transform="translate(0,0)" fill="rgb(121,122,122)" d="M 0 1725.15 L 2.48052 1725.77 C -0.897491 1784.89 1.85259 1845.66 1.86167 1904.94 C 1.86986 1958.43 -1.00985 2013.75 2.42362 2067.04 L 0 2068.48 L 0 1725.15 z"/>
<path transform="translate(0,0)" fill="rgb(69,44,117)" d="M 1528.72 1900.18 C 1546.41 1905.95 1568.05 1924.36 1583.72 1935.38 C 1648.42 1980.65 1709.96 2030.29 1767.89 2083.96 C 1805.67 2119 1841.04 2156.61 1879.35 2191.05 L 1879.35 2278.11 L 1863.87 2264.84 C 1795.83 2205.2 1734.63 2138.68 1665.34 2080.35 C 1632.25 2052.1 1597.87 2025.42 1562.29 2000.38 C 1542.58 1986.42 1520.84 1973.92 1502.19 1958.63 C 1498.94 1955.97 1497.18 1953.5 1497.1 1949.24 C 1496.79 1931.84 1517.8 1912.7 1528.72 1900.18 z"/>
<path transform="translate(0,0)" fill="rgb(69,44,117)" d="M 1497.08 2212 C 1584.93 2259.73 1668.34 2315.23 1746.3 2377.84 C 1791.48 2414.05 1834.14 2453.2 1879.35 2489.39 L 1879.35 2571.2 C 1823.44 2532.3 1773.88 2484.85 1721.38 2441.67 C 1651.13 2383.75 1576.08 2331.92 1497.03 2286.73 L 1497.08 2212 z"/>
<path transform="translate(0,0)" fill="rgb(69,44,117)" d="M 2170.39 2674.58 C 2277.17 2725.19 2382.82 2771.59 2494.9 2809.55 L 2494.9 2878.49 L 2437.63 2858.9 C 2316.31 2816.48 2198.58 2764.4 2085.59 2703.15 L 2170.38 2703.13 L 2170.39 2674.58 z"/>
<path transform="translate(0,0)" fill="rgb(69,44,117)" d="M 2172.45 2106.65 C 2205.04 2123.43 2238.15 2150.27 2270.11 2169.74 C 2343.18 2214.33 2418.18 2255.68 2494.9 2293.67 L 2494.89 2365.85 C 2382.94 2315.24 2275.12 2251.33 2172.26 2184.36 L 2172.45 2106.65 z"/>
<path transform="translate(0,0)" fill="rgb(69,44,117)" d="M 2171.06 2405.43 C 2201.56 2418.3 2246.22 2447.79 2277.82 2464.12 C 2348.69 2500.43 2421.12 2533.63 2494.9 2563.62 L 2494.71 2633.7 C 2383.35 2590.04 2275.13 2538.75 2170.83 2480.2 L 2171.06 2405.43 z"/>
<path transform="translate(0,0)" fill="rgb(69,44,117)" d="M 2235.58 1839.81 C 2247.38 1843.9 2331.52 1907.82 2348.25 1919.23 C 2396.19 1951.91 2445.09 1983.14 2494.9 2012.9 L 2494.9 2088.89 L 2468.28 2073.05 C 2371.92 2015.94 2278.99 1953.24 2189.97 1885.27 C 2204.12 1869.09 2219.36 1853.9 2235.58 1839.81 z"/>
<path transform="translate(0,0)" fill="rgb(69,44,117)" d="M 1765.43 1830.25 C 1806.68 1839.77 1847.18 1871.7 1879.35 1898.03 L 1879.2 1950.65 C 1851.54 1931.72 1788.21 1858.86 1765.43 1830.25 z"/>
</svg>